<?xml version="1.0" encoding="UTF-8" standalone="no"?>
<!-- Uploaded to: SVG Repo, www.svgrepo.com, Generator: SVG Repo Mixer Tools -->

<svg
   width="733.33337"
   height="733.33337"
   viewBox="0 0 22.000001 22.000001"
   fill="none"
   version="1.1"
   id="svg8"
   sodipodi:docname="insta-white.svg"
   inkscape:export-filename="insta-white.svg"
   inkscape:export-xdpi="96"
   inkscape:export-ydpi="96"
   inkscape:version="1.2.2 (b0a84865, 2022-12-01)"
   xmlns:inkscape="http://www.inkscape.org/namespaces/inkscape"
   xmlns:sodipodi="http://sodipodi.sourceforge.net/DTD/sodipodi-0.dtd"
   xmlns="http://www.w3.org/2000/svg"
   xmlns:svg="http://www.w3.org/2000/svg">
  <sodipodi:namedview
     id="namedview7"
     pagecolor="#ffffff"
     bordercolor="#000000"
     borderopacity="0.25"
     inkscape:showpageshadow="2"
     inkscape:pageopacity="0.0"
     inkscape:pagecheckerboard="0"
     inkscape:deskcolor="#d1d1d1"
     showgrid="false"
     inkscape:zoom="0.32181816"
     inkscape:cx="366.66669"
     inkscape:cy="366.66669"
     inkscape:window-width="1309"
     inkscape:window-height="456"
     inkscape:window-x="0"
     inkscape:window-y="25"
     inkscape:window-maximized="0"
     inkscape:current-layer="svg8" />
  <defs
     id="defs12" />
  <path
     fill-rule="evenodd"
     clip-rule="evenodd"
     d="m 11,17 c 3.3137,0 6,-2.6863 6,-6 0,-3.3137099 -2.6863,-5.9999999 -6,-5.9999999 -3.3137099,0 -5.9999999,2.68629 -5.9999999,5.9999999 0,3.3137 2.68629,6 5.9999999,6 z m 0,-2 c 2.2091,0 4,-1.7909 4,-4 0,-2.2091399 -1.7909,-3.9999999 -4,-3.9999999 -2.2091399,0 -3.9999999,1.79086 -3.9999999,3.9999999 0,2.2091 1.79086,4 3.9999999,4 z"
     fill="#0F0F0F"
     id="path2"
     style="fill:#f2f2f2;fill-opacity:1" />
  <path
     d="m 17,4.0000001 c -0.5523,0 -1,0.44772 -1,1 0,0.55228 0.4477,1 1,1 0.5523,0 1,-0.44772 1,-1 0,-0.55228 -0.4477,-1 -1,-1 z"
     fill="#0F0F0F"
     id="path4"
     style="fill:#f2f2f2;fill-opacity:1" />
  <path
     fill-rule="evenodd"
     clip-rule="evenodd"
     d="M 0.65396006,3.2760601 C 5.9604645e-8,4.5595301 5.9604645e-8,6.2396901 5.9604645e-8,9.6000001 V 12.4 c 0,3.3603 0,5.0405 0.653960000395355,6.3239 C 1.2292001,19.8529 2.1470801,20.7708 3.2760601,21.346 4.5595301,22 6.2396901,22 9.6000001,22 H 12.4 c 3.3603,0 5.0405,0 6.3239,-0.654 1.129,-0.5752 2.0469,-1.4931 2.6221,-2.6221 C 22,17.4405 22,15.7603 22,12.4 V 9.6000001 c 0,-3.36031 0,-5.04047 -0.654,-6.32394 -0.5752,-1.12898 -1.4931,-2.04686 -2.6221,-2.62210004 C 17.4405,5.9604645e-8 15.7603,5.9604645e-8 12.4,5.9604645e-8 H 9.6000001 c -3.36031,0 -5.04047,0 -6.32394,0.653960000395355 C 2.1470801,1.2292001 1.2292001,2.1470801 0.65396006,3.2760601 Z M 12.4,2.0000001 H 9.6000001 c -1.71316,0 -2.87775,0.00156 -3.77792,0.0751 -0.87684,0.07164 -1.32524,0.20149 -1.63804,0.36087 -0.75265,0.3835 -1.36457,0.99542 -1.74807,1.74807 -0.15938,0.3128 -0.28923,0.7612 -0.36087,1.63804 -0.07354,0.90017 -0.0751,2.06476 -0.0751,3.77792 V 12.4 c 0,1.7132 0.00156,2.8777 0.0751,3.7779 0.07164,0.8769 0.20149,1.3253 0.36087,1.6381 0.3835,0.7526 0.99542,1.3645 1.74807,1.748 0.3128,0.1594 0.7612,0.2893 1.63804,0.3609 0.90017,0.0735 2.06476,0.0751 3.77792,0.0751 H 12.4 c 1.7132,0 2.8777,-0.0016 3.7779,-0.0751 0.8769,-0.0716 1.3253,-0.2015 1.6381,-0.3609 0.7526,-0.3835 1.3645,-0.9954 1.748,-1.748 0.1594,-0.3128 0.2893,-0.7612 0.3609,-1.6381 C 19.9984,15.2777 20,14.1132 20,12.4 V 9.6000001 c 0,-1.71316 -0.0016,-2.87775 -0.0751,-3.77792 -0.0716,-0.87684 -0.2015,-1.32524 -0.3609,-1.63804 -0.3835,-0.75265 -0.9954,-1.36457 -1.748,-1.74807 -0.3128,-0.15938 -0.7612,-0.28923 -1.6381,-0.36087 -0.9002,-0.07354 -2.0647,-0.0751 -3.7779,-0.0751 z"
     fill="#0F0F0F"
     id="path6"
     style="fill:#f2f2f2;fill-opacity:1" />
</svg>
