<?xml version="1.0" encoding="UTF-8" standalone="no"?>
<!-- Generator: Adobe Illustrator 19.0.0, SVG Export Plug-In . SVG Version: 6.00 Build 0)  -->

<svg
   version="1.1"
   id="Layer_1"
   x="0px"
   y="0px"
   viewBox="0 0 156.5 111.5"
   style="enable-background:new 0 0 156.5 111.5;"
   xml:space="preserve"
   sodipodi:docname="ng-logo-ng-red-lite.svg"
   inkscape:version="1.2.2 (b0a84865, 2022-12-01)"
   xmlns:inkscape="http://www.inkscape.org/namespaces/inkscape"
   xmlns:sodipodi="http://sodipodi.sourceforge.net/DTD/sodipodi-0.dtd"
   xmlns:xlink="http://www.w3.org/1999/xlink"
   xmlns="http://www.w3.org/2000/svg"
   xmlns:svg="http://www.w3.org/2000/svg"><defs
   id="defs73"><linearGradient
     id="linearGradient972"
     inkscape:swatch="solid"><stop
       style="stop-color:#000000;stop-opacity:1;"
       offset="0"
       id="stop970" /></linearGradient><linearGradient
     inkscape:collect="always"
     xlink:href="#linearGradient972"
     id="linearGradient974"
     x1="0.525"
     y1="56.073255"
     x2="156.30969"
     y2="56.073255"
     gradientUnits="userSpaceOnUse" /></defs><sodipodi:namedview
   id="namedview71"
   pagecolor="#ffffff"
   bordercolor="#000000"
   borderopacity="0.25"
   inkscape:showpageshadow="2"
   inkscape:pageopacity="0.0"
   inkscape:pagecheckerboard="0"
   inkscape:deskcolor="#d1d1d1"
   showgrid="false"
   inkscape:zoom="2.7960508"
   inkscape:cx="70.456518"
   inkscape:cy="57.581215"
   inkscape:window-width="1381"
   inkscape:window-height="694"
   inkscape:window-x="205"
   inkscape:window-y="1225"
   inkscape:window-maximized="0"
   inkscape:current-layer="g68" />
<style
   type="text/css"
   id="style2">
	.st0{fill:#B92025;}
</style>
<g
   id="g68"
   style="fill-opacity:1;fill:#be0000">
	<path
   class="st0"
   d="M49.7,43c-2.7,0-2-1.8-2-1.8s0.5,0.6,2.3,0.6c1.7,0,2.7-1.6,2.6-2.1C54.1,40.1,52.7,43,49.7,43 M47.6,25.8   c0.4-0.1,1.1,1.9,0.4,2C47.2,27.9,47,25.8,47.6,25.8 M45.9,27.6c-0.7-0.1-0.2-2.3,0.4-2C46.7,25.7,46.6,27.8,45.9,27.6 M46.9,38.8   c-0.9,1,0,2.7-2.9,2.7c-1.8,0-2.5-1.1-2.5-1.8c0-0.4,0.4-0.7,0.4-1.9c0-1.8-2.2-5.1-2.2-6.4c0-0.8,1.3-1.6,2.5-3.1   c1.3-1.5,2-1.9,2.4-2.8c0.4-0.9,0.5-0.9,1-1.4c0.5-0.4,0.5-1,0.8-1c0.3,0,0.2,1.4,0.2,1.4c0,0.6-0.2,0.6-0.5,0.7   c-0.3,0.1-0.6,0.5-0.8,1c-0.3,0.6-0.6,1.2-0.9,1.5c-0.3,0.3-0.5-0.1-1,0c0.4,0.2,0.7,0.4,0.4,0.8c-0.3,0.4-0.5,1.2-2.2,1.8   c0.5,0.3,1.5-0.1,1.9-0.3c-0.8,1.1-2.5,1.5-2.7,1.9c0.8-0.4,1.8-0.3,2.3-0.3c0.4,0,0.6-0.3,0.6-0.7c0-0.4,0.6-1.3,0.7-2   c0.3,0.2,1.2,0.4,1.2,0.4c-0.4-0.3-0.8-0.6-1.1-0.7c0.4-0.7,0.6-1.3,0.8-1.7c-0.1,0.6,0.3,0.9,0.6,0.9c0.4,0,0.6-0.2,0.9-0.7   c0,0,0,2.1-0.4,2.9c-0.2,0.5-0.1,1.1-0.2,1.9c-0.1,0.8,0,1-0.3,1.4c-0.2,0.5-0.3,0.9-0.3,1.1c0.2-0.3,0.7,0,0.9,0.7   c0.2,0.7,0.1,2.4,0.3,3c0.1-0.9,0.1-2,0.3-2.7c0.2-0.7,0.6-0.9,0.8-0.5c0-0.6,0-0.5-0.1-0.9c-0.1-0.4,0-1.8-0.1-2.6   c0-0.8-0.2-0.9-0.4-1.9c-0.2-1,0-2.3,0-2.3s0.3,0.8,0.7,0.8c0.4,0,0.7-0.6,0.7-0.6c0.3,0.8,0.5,1.4,0.5,1.7   c-0.5,0.1-1.3,0.1-0.8,0.6c0.2-0.3,0.7-0.4,0.8-0.2c0.1,0.2,0,0.4,0.5,1.1c0.5,0.7,1.4,3.1,1.8,3.1c-0.2-0.7-0.7-1.8-0.9-2.6   c0.5-0.1,0.8-0.3,0.8-0.3c-0.5-0.4-1.2-0.7-1.6-1.7c-0.4-1-0.5-1.3-0.9-2c-0.5-0.7-0.5-2.1-1.5-1.8c-0.4-0.8-0.4-2.5-0.1-2.5   c0.3,0,0.7,1.2,1.5,2c0.8,0.9,1.7,2.2,2.6,3.5c1.2,1.8,2.7,2.8,2.7,3.5c0,1.4-2.4,4.9-1.9,7.5c0.2,1.2-1.4,2-2.5,2   C47.6,41.6,47.1,39.9,46.9,38.8 M42.1,42.9c-2.2-1-1.9-3.3-0.9-3.3c-0.1,0.8,0.5,1.9,2.1,2.3c1.6,0.3,3-0.7,3-0.7   C46.5,42.2,44.4,44,42.1,42.9 M52.4,39.4c-0.1-3.3,1.9-5.3,1.9-7.3c0-1-1.6-1.5-3.4-4.9c-1.2-2.4-2.8-3.9-3.1-4.5   c-0.4-0.6-0.8-0.8-0.9-0.5c-0.1-0.5-0.8,0-1.2,0.9c-0.5,0.8-1.5,2-1.9,2.8c-0.4,0.8-1.7,2.4-4,4.6c-0.5,0.5-0.7,1.2-0.4,2   c0.4,0.8,2.8,5.7,1.9,6.9c-0.8-0.1-1.6,1.1-0.9,2.6c0.8,1.7,3.3,2.3,5.2,1.1c1.1-0.8,1.1-1.6,0.7-2l0.2-0.9c0,0,0.4,0.4,0.7,0.8   c-0.5,0.8,0.2,2.1,0.9,2.4c0.8,0.3,3.1,0.4,4.8-1.5C54.1,40.8,53.6,39.4,52.4,39.4"
   id="path4"
   style="fill-opacity:1;fill:#be0000;stroke-width:0.4;stroke-dasharray:none;stroke:#be0000;stroke-opacity:1" />
	<path
   class="st0"
   d="M112.9,43.9c-1.3,0-1.9-0.9-1.6-1.5c0,0,0.4,0.4,0.9,0.4c0.9,0,2.4-1.7,3.1-3.3c0.7-1.6-0.2-2.4-0.2-2.4   c1-0.2,1.9,0.8,1.9,1.9C117.1,41,114.3,43.9,112.9,43.9 M108.4,23.5c0.3,0,0.1,0.7,0.5,1.7c0.1,0.2-0.4,0.6-0.7-0.6   C108.1,24,108.1,23.6,108.4,23.5 M110.2,41c-1.1-0.8-2.3-1.9-2.4-2.7c-0.1-0.8,0-1.5,0-1.5c0.5,0.2,1.2,0.4,1.3,1.3   c0.3-1.3-0.9-1-0.9-3.2v-2c0-0.3,0.3-1,0.2-1.5c0.3,0.3,0.7,1.1,0.7,1.1c0.2-0.8-0.3-1.2-0.6-2.4c-0.3-1.2-0.2-1.7-0.6-2.6   c-0.4-1-0.6-2-0.1-3.1c0.1,1,0.3,1.3,0.8,1.5c0.6,0.2,0.8,0.3,1.3,1.1c0.5,0.8,0.8,1,1.3,1.6c0.5,0.5,1.2,2.1,1.8,2.3   c-0.3-0.8-0.9-1.5-1.5-2.4c-0.5-1-0.8-0.9-1.7-2.2c-0.5-0.7-0.6-0.5-0.8-1.3c-0.1-0.8-0.2-1.7-0.7-1.7c-0.8,0-1.1,2.2-2.1,2.2   c-0.6,0-0.7-0.3-0.5-0.6c0.5-0.5,0.4-2,1.1-2.1c0.6-0.1,2.3,0.5,2.9,0.6c0.6,0.1,0.8,0.2,1.2,1.1c0.4,1,1.5,3.3,1.5,3.3   c0.3,0.6,0.4,0.9,0.6,1.8c0.3,0.9,0.8,1.6,0.7,3.5c-0.1,1.9,0.2,2.9,1.3,4.4c0.1,0.2,0.6,0.8,0,2c-0.6,1.2-2,2.9-2.9,2.9   C111.6,42.3,111.3,41.8,110.2,41 M107.2,34.1c-0.6,0-1.4-0.4-1.5-1.2c-0.3,0.1-0.3,0.4-0.3,0.4c-0.3-0.8-1.3-1.8-1.3-2.2   c0-0.4,0.2-1,0.5-1.2c0,0-0.3,0.5,0.4,1.1c0.6,0.6,0.8,0.8,0.8,0.8c0.9,0.5,2.2,0.2,2.2,0.2S108,34.1,107.2,34.1 M106,35   c-0.3,0-0.4-0.7-0.4-0.7c-0.1,0.1-0.3,0.4-0.5,0.3c-0.2-0.1-1.2-0.7-1.2-1.3c0-0.6,0-0.9,0-1.4c0.6,0.3,1,1.7,1.4,1.9   c0.4,0.2,0.9,0.5,1.4,0.5C106.5,34.7,106.3,35,106,35 M104.9,28.1c-0.1-1.3,1.8-1.3,2.2-1.3c0.4,0,0.6,1.1,0.8,1.6   c-0.5-0.4-0.8-0.6-1.1-0.6c-0.3-0.1-0.4,0.3-0.1,0.4c0.4,0.1,0.8,0.5,1,0.9c0,0-0.5,0.2-0.8,0.2c-0.4,0.1-0.3,0.5,0.1,0.5h0.9   c0.6,0,0.4,1.1,0.3,1.5c-0.2,0.5-1,0.4-1.5,0.4c-0.5,0-0.4-0.4-0.2-0.9c0,0-0.2,0.2-0.4,0.5c0,0-0.4-0.4-0.6-0.6   c-0.3-0.3-0.4-0.1-0.4-1C104.9,29.8,105,29.4,104.9,28.1 M114.9,36.5c-1.1-2.6-0.6-3.5-0.9-5.2c-0.3-1.7-0.6-1.6-0.8-2.5   c-0.2-0.8-0.5-1.4-1-2.5c-0.5-1.1-1.3-2.6-1.3-2.6c-0.3-0.6-1-0.8-1.8-1c-0.8-0.1-2.2-0.6-2.9,0.1c-0.4,0.6-0.1,0.9-1,2.1   c-0.3,0.5,0.8,1.2,1.8,0.4l0,1c-0.7,0.1-1.8,0-2.2,0.5c-0.3,0.5-0.4,0.8-0.4,1.5v1.1c-1.1,0.5-1,1.5-0.8,2.1   c-0.5,0.5-0.6,2.1,0.2,2.7c0.8,0.6,1.5,1,1.5,1c0.5,0.3,1,0.3,1.5-0.4c0.3,0.8,0.6,0.8,0.6,1.5c0,0.8-0.4,2.3,0.6,3.3   c1,1,3,2.5,3,2.5c-0.5,1.1,0.4,2.1,1.5,2.1c2.3,0,4.9-3.1,4.9-5.2C117.5,37,115.5,36.2,114.9,36.5"
   id="path6"
   style="fill-opacity:1;fill:#be0000;stroke-width:0.4;stroke-dasharray:none;stroke:#be0000;stroke-opacity:1" />
	<path
   class="st0"
   d="M47.1,65.3c-0.1,0-0.2,0.1-0.2,0.2c0,0.1,0.1,0.2,0.2,0.2c0.1,0,0.2-0.1,0.2-0.2   C47.4,65.4,47.3,65.3,47.1,65.3"
   id="path8"
   style="fill-opacity:1;fill:#be0000" />
	<path
   class="st0"
   d="M45.7,73.9c-0.1,0-0.2,0.1-0.2,0.2c0,0.1,0.1,0.2,0.2,0.2c0.1,0,0.2-0.1,0.2-0.2C45.9,74,45.8,73.9,45.7,73.9"
   id="path10"
   style="fill-opacity:1;fill:#be0000" />
	<path
   class="st0"
   d="M45.3,66.7c0.1,1.2,0.7,1.4,0.7,1.4S46,68,46.8,68C46,67.9,45.3,66.7,45.3,66.7"
   id="path12"
   style="fill-opacity:1;fill:#be0000" />
	<path
   class="st0"
   d="M50.3,77.9c-2,1-2.9,0.3-3-0.6c0.8,0.1,2.5-0.7,3.8-1.9c1.4-1.2,1-2.5,1-2.5c0.5-0.2,1.5,0.2,1.5,1   C53.7,74.7,52.2,76.9,50.3,77.9 M44.3,74.4c-0.8-0.8-0.9-2.1-1.1-3c0.5,0.3,0.6,1,1.1,1.8l-0.2-0.9c0,0,0.6,0.7,1.3,1.3   c-0.6-2-2.4-3.2-3.6-3.9c-1.2-0.7-1.6-1.6-1.9-2.1c0,0,0.6,0.4,1.1,0.8c0.1-0.6,0.8-0.9,1.1-1.5c0.7,0.6,1.3,0.7,2.1,1.2   c-0.3,0.2-0.9,0.7-0.7,1.4c0,0,0.4-0.8,0.9-1c0,0,2.1,1.4,3.1,2.1c1,0.7,1.4,0.9,2.3,0.8c-0.6-0.2-1.5-0.8-1.5-0.8l0.4-0.2   c-0.3-0.1-0.7,0-1.3-0.3c0,0-0.1-0.1-1.3-0.9c0,0,0.8-0.7,1.8-0.6c-0.4-0.3-1.6-0.1-2.4,0.3c-0.6-0.6-0.8-0.7-1.9-1.6   c0,0,0.8-0.7,1.6-1.5c-0.6-1.1-1.4-4.2-1.6-6.2c-0.2-2-0.7-2.3-0.1-3.7c0.6-1.4,1.1-0.1,1.1,0.5c0,0-0.4,1-0.2,3   c0.2,1.9,0.6,3.6,0.8,4.3c0.2,0.7,0.1,1.5,0.4,1.5c0.4,0,0.7,0.4,1.1,0.3c0.3-0.1-0.1-0.4-0.6-0.7c-0.5-0.3-0.5-0.9-0.8-2   c-0.3-1.2-0.7-4-0.6-5.3c0.1-1.3,1.2-1.8,1.2-1.1c0,0.7,0.4,2.9,0.9,4.2c0.4,1.3,0.8,3.8,1.6,5.3c1.2,2.4,1.6,3.7,2.4,5.3   c0.8,1.6,1.1,1.6,1.1,2.3c0,1.6-3.7,4.1-4.7,3.7C46.9,75.8,45.1,75.1,44.3,74.4 M39.7,66c0.3-0.4,1.2,0.4,1.8,0.9   c-0.3,0.4-0.8,0.8-0.8,0.8C40.1,67.2,39.4,66.4,39.7,66 M43.1,66.6c-0.5,0-0.9-0.6-0.9-0.6s0.3-0.4,0.6-0.6   C42.8,65.4,42.9,66.3,43.1,66.6 M44.3,65.8c0,0-0.5,0.1-0.9,0.9c-0.3-0.7-0.2-1.6-0.2-1.6c0.4-0.5,0.9-0.5,0.9-0.5L44.3,65.8z    M40.3,65.1c0.8-0.3,1.3-1.2,3.3-2.5l0.6,1.7c-0.6,0.2-0.8,0.5-0.8,0.5s-0.1-0.5,0-0.9c-0.4,0.6-0.5,1.1-0.9,1.4   c-0.4,0.4-1.3,0.9-1.3,0.9c-0.7-0.2-1.2-0.9-1.8-0.4C39.2,65.3,39.5,65.4,40.3,65.1 M42.7,60.2c0.3-0.1,0.2,1.4,0.2,2.3   c-0.3,0.3-0.8,0.7-0.8,0.7C41.7,60.6,42.4,60.3,42.7,60.2 M52,72.4c-0.6-0.5-0.6-1.3-1.3-2.9c-0.7-1.6-1.5-3.1-2.2-4.7   c-0.7-1.6-0.3-1.3-1.1-3.5c-0.9-2.8-1-4.3-1.2-5.7c-0.2-1.1-1.4,0.2-1.4,0.2s-0.1-0.7-0.3-1.1c-0.2-0.4-0.9-0.1-1.4,0.9   c-0.5,1-0.5,1.3-0.2,2.5c0.3,1.1,0.4,2.2,0.6,4l-0.3,0.1c0,0,0-1.4-0.1-2c-0.1-0.7-0.7-0.5-1.2,0.2c-0.5,0.7-0.3,2.1-0.2,3.1   c-0.7,0.5-1.5,1.4-2.1,1.6c-0.6,0.2-0.7,0.6-0.3,1.2c-0.1,0.9,0.5,2.3,1.3,3.2c0.8,0.9,1.2,0.7,2,1.5c0.6,0.9,0.3,2.6,1.1,3.5   c0.8,1,2.3,1.4,3.2,2.6c0,0.9,0.3,1.8,1.7,1.8c2.9,0,5.5-3.6,5.5-4.8C54.1,72.8,53,72.5,52,72.4"
   id="path14"
   style="fill-opacity:1;fill:#be0000;stroke-width:0.4;stroke-dasharray:none;stroke:#be0000;stroke-opacity:1" />
	<path
   class="st0"
   d="M80.5,76c0.3,0.2,0.4,0,0.4,0C80.7,75.7,80.1,75.8,80.5,76"
   id="path16"
   style="fill-opacity:1;fill:#be0000" />
	<path
   class="st0"
   d="M79.7,71.9c-0.3,0.1-0.2,0.7,0,0.4C79.9,71.9,79.7,71.9,79.7,71.9"
   id="path18"
   style="fill-opacity:1;fill:#be0000" />
	<path
   class="st0"
   d="M82.6,70.1c-0.3,0.1-0.2,0.7,0,0.4C82.8,70.1,82.6,70.1,82.6,70.1"
   id="path20"
   style="fill-opacity:1;fill:#be0000" />
	<path
   class="st0"
   d="M74.2,74c0.1,1.1,0.4,1.6,1.4,1.9C75.1,75.6,74.2,74,74.2,74"
   id="path22"
   style="fill-opacity:1;fill:#be0000" />
	<path
   class="st0"
   d="M82.4,78.3c-0.6-0.1-1.5-0.6-0.9-0.9c3.4-1.5,3-4.3,3-4.3c0.1-0.5,1.3,0.2,1.3,1.2   C85.9,76.8,83,78.4,82.4,78.3 M81.2,77.3c-0.4-0.9-2.2-2-2.3-2.8c-0.1-0.7-0.3-2.2-0.3-3.4c0,0,0.4,0.2,0.7,0.5   c0-0.3-0.4-0.6-0.3-0.7c0,0,0.2-2.8,0.3-3.4c0-0.6-0.5-0.8-0.5-1.7c0,0,0.2-1.9,0.2-2.7c0-1.4,1.2-1.5,1.2-0.6v1   c0,0.5-0.4,0.5-0.4,1c0.4-0.3,0.5,0.1,0.9,0.9c0.4,0.8,0.3,0.9,0.7,2.1c0.4,1.2,0.8,2.4,1,2.3c0.2-0.2-0.6-1.3-0.9-2.9   c-0.3-1.6-0.5-1.8-0.8-2.5c-0.4-0.7-0.1-1.2-0.3-2.1c-0.1-0.8-1.1-0.8-1.5-0.3c0,0,0.1-0.5-0.1-0.6c0,0,0-0.7-0.1-2.1   c0-1.4,0-2.8,0-2.8c0-0.8,0.8-0.5,0.8,0c0,0.5-0.1,0.2,0.2,1.5c0.3,1.3,0.3,2,0.7,2.8c0.4,0.8,0.4,1.3,0.7,2.5   c0.3,1.3,0.3,1.1,0.7,2.6c0.4,1.5,0.8,2.2,1.2,4.2c0.4,2,1.2,2.9,1.2,3.7C84.3,75.5,82.3,77,81.2,77.3 M78,67.9   c0.1,0.9,0,2.4,0,2.4c0,0.4-0.7,1-0.6,1.4c0.3-0.4,0.8-0.6,0.8-0.6v3c0,0.4-0.3,0.5-0.4,0.9c-0.2,0.4-0.7,0.9-0.9,1   c-0.2,0.1-0.6-0.1-1,0.2c-0.4,0.3-1.1,1.3-1.1,1.3s-3-1.5-3-3.9c0-0.7,0.5-0.9,1.2-2.1c0.6-1.2,0.9-2,1.5-3.3   c0.6-1.3,0.2-1.3,1-2.9c0.8-1.6,0.7-1.8,0.8-2.8c0.1-1,0.1-1.3,0.4-2.4c0.3-1.1,0.5-2.1,0.5-3.1c0.1-1,0.3-1.6,0.5-1.6   s0.6,0.3,0.7,1.5c0.1,1.2,0.1,2.4,0.1,3.3c0,0.9-0.1,1.1-0.1,1.1l0.1,0.5c-0.2,0-1.2-0.6-1.4,0c-0.2,0.7-0.2,1.2-0.4,1.8   c-0.1,0.6-1.5,3.1-1.3,3.6c0.4-0.7,1.4-2.7,1.6-3.2c0.2,0.2,0.6,0.5,0.6,0.5c-0.1-0.6-0.1-0.7-0.3-1c-0.2-0.3,0.1-1,0.1-1.5   c0-0.4,0.2-0.4,0.4-0.2c0.3,0.4,0.8,0.7,0.8,2.1c0,1.4-0.1,1.6-0.4,2.2C77.8,67.1,77.9,67,78,67.9 M73.2,78.4c-1-0.5-2.9-2.1-2.9-4   c0-1.5,1-1.7,1.4-1.5c-0.4,0.9-0.4,2.9,3,4.9C75.3,78.1,74.2,78.9,73.2,78.4 M76.3,59.1c0.3-1.1,0.5-2.2,0.5-2.2   c-0.1,1.4-0.2,2.3-0.5,3.3c-0.3,1-0.5,3-0.5,3C75.9,61.6,76,60.2,76.3,59.1 M78.3,55.5c-0.4-0.5-0.8-0.1-0.8-0.1   C77.5,54.9,77.8,54.6,78.3,55.5 M79.7,55.7c-0.3-0.3-0.7,0-0.7,0C79.2,55.2,79.6,55.1,79.7,55.7 M80.9,59.8   c0.2,1.2,0.5,2.1,0.5,2.1c-0.3-1.4-0.8-1.8-0.9-2.5c-0.1-0.8-0.4-2.2-0.4-2.2C80.4,58,80.6,58.7,80.9,59.8 M84.4,72.7   c-0.7-1.5-0.9-2.9-1.6-5.4c-0.7-2.5-0.8-2.7-1.1-5.2c-0.3-2.5-0.7-3.7-1-4.7c-0.3-1-0.2-2.7-1.1-2.7c-0.6,0-0.8,0.6-0.8,0.6   s-0.3-0.8-1-0.8c-0.7,0-0.5,0.9-0.8,1.7c-0.3,0.8-0.5,1.7-0.8,3.1c-0.3,1.4-0.5,2.2-0.6,3.7c-0.1,1.5,0.1,1.8-0.5,2.9   c-0.6,1.1-0.1,1.1-0.7,2.3c-0.6,1.2-0.9,1.8-1.4,2.9c-0.5,1.1-0.9,1.6-0.9,1.6C71,72,70,73,70,74.4c0,1.4,0.9,3.3,2.8,4.2   c1.3,0.6,2.9-0.2,2.5-1.1c0.5-0.7,0.8-1,0.8-1c0.6,0,1.3-0.3,2.1-1.5c0.3,0.1,0.6,1,1.5,1.1c0.5,0.2,1.2,1.2,1.2,1.2   c-0.1,0.9,1.1,1.7,2.1,1.2c1-0.5,3.2-1.9,3.2-4.1C86.2,73.1,85.5,72.4,84.4,72.7"
   id="path24"
   style="fill-opacity:1;fill:#be0000;stroke-width:0.4;stroke-dasharray:none;stroke:#be0000;stroke-opacity:1" />
	<path
   class="st0"
   d="M74.8,69c0-0.3,0.5-1.2,0.5-1.2C75,67.7,74.8,68.1,74.8,69"
   id="path26"
   style="fill-opacity:1;fill:#be0000" />
	<path
   class="st0"
   d="M116.3,76c-1.3,1.5-1,3.2-1.5,3.2c-0.9,0-1.6-2.2,0.3-4.3c1.9-2.1,4-1.1,3.9-0.7C119,74.5,117.6,74.4,116.3,76    M106,66.1c0.6-0.5,1.1-0.9,1.1-0.9s0.6,0,1.1-0.2c0,0,1.2,1.4,1.7,2c0,0,0,1,0,1.8c0,0-0.5,0.3-1.2,1c0,0-0.7-1.2-1.4-1.7   C106.6,67.6,106.6,66.6,106,66.1 M109.4,74.7c-1.3-0.5-1.4-0.7-2.2-2.2c-0.8-1.5-1.5-2.3-2.1-2.9c-0.5-0.6-0.4-1.5-0.5-2   c0.7-0.6,1.2-1.2,1.1-1.4c0.3,0.5,0.7,1.9,1.2,2.2c0.5,0.3,0.7,0.6,1.2,1.3c0.5,0.7,1.2,1.6,1.2,1.4c-0.2-0.6-0.5-0.8-0.5-0.8   s1,0.1,1.1,0.4c-0.3-0.6-0.9-0.7-0.9-0.7c0.8-0.8,1.1-0.9,1.1-1.3v-2.4c0,0-0.1,0.6-0.6,0.1c-0.5-0.5-1.3-1.4-1.3-1.9   c-0.2,0.3-1.4,0.4-1.4,0.4c-0.3,0.6-1.1,1-1.1,1c-0.7-0.4-0.8-0.8-0.8-0.8c0.9-0.6,1.1-1.4,1.7-1.5c0.6-0.1,1.7-0.6,1.9-0.8   l-0.1,0.3c0.2-0.2,0.6-0.7,0.9-0.4c0.3,0.3,1.5,1.5,1.9,1.8c0.5,0.3,1.4,1.2,1.4,1.4c0.2-0.6-0.4-1-0.7-1.2   c-0.4-0.2-1.2-1.1-1.6-1.6c-0.4-0.5-0.5-0.8-0.7-1.5c-0.2-0.7-0.8-1.4-0.8-2c0-0.7,0-0.8-0.3-1.3c-0.2-0.5-0.3-1.8,0-2   c0.5,0.5,0.5,0.6,1.1,1.7c0.5,1.1,1.1,2,1.5,2.6c0.4,0.6,0.4,0.5,0.8,1.5c0.4,1,1.9,3.2,2.2,3.5c0.2-0.8,0.1-1.5,0-2.3   c-0.2-0.8-0.3-1.1-0.1-2c0.2-0.8,0.8-2.1,1.2-2c0.3,0.1-0.1,1-0.2,2.5c-0.1,1.5-0.5,2.6-0.2,4.2c0.2,1.6,0.1,2.2,0.6,4.2   c0.5,2,1,2.8,1.7,3.2c0,0-1.5,0.2-2.3,1.3c-0.8,1-1.2,2.6-1.2,2.6C113,76.7,112.5,75.5,109.4,74.7 M104.9,65.4   c0.4,0.3,0.8,0.9,0.3,1.3c-0.5,0.3-0.6,0.1-0.8-0.4C104.2,65.8,104.6,65,104.9,65.4 M109.6,56.9c-0.2-0.5-0.7-1.1-0.7-1.1   C109.1,55.1,109.3,55.7,109.6,56.9 M111.7,57c0,0,0.1,1,0.9,1.4c0.3,0.9,0.4,1.5,0.6,2.4c0.2,0.9,0.7,3.1,0.9,4.2   c-0.5-1.1-0.8-1.5-1.4-2.4c-0.6-0.9-1-1.9-1-1.9C111.6,59.6,111.5,57.6,111.7,57 M112.3,56.4c0.3-0.2,0.1,0.9,0.4,1.5   C112.3,57.5,111.7,57.1,112.3,56.4 M117.7,73.3c-0.7-0.4-1.6-0.9-1.8-2.2c-0.2-1.3-0.5-2.5-0.6-3.4c-0.1-0.9-0.1-1.5-0.3-2.1   c-0.2-0.8,0.1-1.4,0.2-2.7c0.1-1.3-0.1-1.6,0.2-2.5c0.3-0.9,0.7-1.9,0-1.6c-0.8,0.2-1.4,1.1-1.8,2.1c-0.3-0.6-0.4-2-0.8-2.8   c-0.2-1.1-0.1-2.1-0.5-2.1c-0.4,0-1,1-1,1.8c0,0.8,0,2.4,0,2.4c-0.5-0.8-1.3-2.6-1.6-3c-0.2-1.1-0.5-2.5-1.2-1.4   c-0.4,0.2-0.8,1-0.3,2.7c0.3,0.9,0,1.3,0.5,2.1c0.5,0.7,0.8,1.3,0.8,1.7c-0.7-0.2-1.2,0.2-1.6,0.4c-0.4,0.3-0.6,0.3-1.1,0.4   c-0.5,0.1-0.6,0.4-1,0.7c-0.4,0.4-0.9,0.8-1.3,1.1c-0.4,0.3-0.6,1.1-0.1,1.9c0,0.9-0.2,2.1,0.4,2.8c0.5,0.7,2,2.3,2.6,3.8   c0.6,1.5,1.6,1.6,2.6,1.9c1,0.3,3.1,1.2,3.6,2.5c0.1,1.1,0.7,1.8,1.3,1.8c0.6,0,0.8-0.6,0.8-1.2c0-0.7,1.1-3.3,3.4-3.6   C120,74.5,119.2,73.4,117.7,73.3"
   id="path28"
   style="fill-opacity:1;fill:#be0000;stroke-width:0.4;stroke-dasharray:none;stroke:#be0000;stroke-opacity:1" />
	<path
   class="st0"
   d="M43.9,99.9l-0.7,1.1c-0.1,0.2-0.3,0.3-0.5,0.3h-2.5c-0.3,0-0.4-0.2-0.4-0.4v-1.6c0-0.3,0.1-0.4,0.4-0.4H43   c0.3,0,0.5,0.1,0.7,0.3l0.3,0.3C44.1,99.7,44,99.8,43.9,99.9 M49.6,110l-4.1-4.7c-0.1-0.2-0.1-0.3,0-0.5l2.1-3.3   c0.2-0.4,0.4-0.8,0-1.3l-4-4.6c-0.3-0.3-0.6-0.4-0.9-0.4h-8.4L34,94.6c-0.1-0.2-0.2-0.2-0.3-0.2h-1.1c-0.2,0-0.4,0.1-0.2,0.4l2.5,4   h0.4v6.9c0,0.6-1.2,0.8-0.3,1.6l4,3.3c0.8,0.7,1.8-0.4,0.8-1.4v-3.4c0-0.2,0-0.4,0.4-0.4h2.4c0.3,0,0.4,0,0.8,0.3l4,4.6   c0.2,0.3,0.5,0.5,0.8,0.5h1.3C50.2,110.9,49.9,110.3,49.6,110"
   id="path30"
   style="fill-opacity:1;fill:#be0000" />
	<path
   class="st0"
   d="M110.2,100.2l-0.7,1.1c-0.1,0.2-0.3,0.3-0.5,0.3h-1.6c-0.3,0-0.4-0.2-0.4-0.4v-1.6c0-0.3,0.1-0.4,0.4-0.4h1.8   c0.3,0,0.5,0.1,0.7,0.3l0.3,0.3C110.3,100,110.3,100.1,110.2,100.2 M115.9,110.3l-4.1-4.7c-0.1-0.2-0.1-0.3,0-0.5l2.1-3.3   c0.3-0.4,0.4-0.8,0-1.3l-4-4.6c-0.3-0.3-0.6-0.4-0.9-0.4h-7.4l-0.3-0.4c-0.1-0.1-0.2-0.2-0.3-0.2h-1.1c-0.2,0-0.4,0.1-0.2,0.4   l2.5,4h0.4v6.9c0,0.6-1.2,0.8-0.3,1.6l4,3.3c0.8,0.7,1.8-0.4,0.8-1.4v-3.4c0-0.2,0-0.4,0.4-0.4h1.4c0.3,0,0.4,0,0.8,0.4l4,4.6   c0.2,0.3,0.5,0.5,0.9,0.5h1.3C116.5,111.2,116.2,110.6,115.9,110.3"
   id="path32"
   style="fill-opacity:1;fill:#be0000" />
	<path
   class="st0"
   d="M47.6,95.1l-0.3-0.4c-0.1-0.2-0.2-0.2-0.3-0.2h-1.1c-0.2,0-0.4,0.1-0.2,0.4l2.7,4h0.9v6.9   c0,0.6-1.2,0.8-0.3,1.6l4,3.3c0.8,0.7,1.8-0.4,0.8-1.4V95.1H47.6z"
   id="path34"
   style="fill-opacity:1;fill:#be0000" />
	<path
   class="st0"
   d="M62,98.9h4.8l-4.1-3.8h-8.9l-0.3-0.4c-0.1-0.2-0.2-0.2-0.3-0.2h-1.1c-0.2,0-0.4,0.1-0.2,0.4l2.7,4H57   c0.3,0,0.5,0.1,0.5,0.5v5.8c0,0.6-1.5,1-0.6,1.8l5,3.7c0.8,0.7,1.8-0.4,0.8-1.4c-0.8-0.8-1.2-1.5-1.2-2.4v-7.5   C61.6,99,61.8,98.9,62,98.9"
   id="path36"
   style="fill-opacity:1;fill:#be0000" />
	<path
   class="st0"
   d="M19.2,99.1v7.1c0,0.6,0.4,0.9,0.9,1.4c0.5,0.5,3,2.7,3,2.7c0.6,0.5,2.2,1.1,2.2,0.1c0-0.3-0.7-0.8-1.1-1.2   c-0.4-0.3-0.4-0.9-0.4-0.9v-6.5c0,0-0.1-0.8,1,0.4c0.6,0.8,5.6,6.5,5.6,6.5c0.3,0.3,0.1,0.5,0.6,0.8c0.4,0.3,2.2,1.3,2.2,1.3   c0.5,0.2,1.6,0.3,1.6-0.4c0-0.6-2.2-2.3-2.2-3.2v-9.6c0-0.7-0.3-1.1-1.5-2.3c-0.3-0.3-1.1-0.3-1.6-0.3h-2l-0.3-0.4   c-0.1-0.2-0.2-0.2-0.3-0.2h-1.1c-0.2,0-0.4,0.1-0.2,0.4l2.5,4v2.7c0,0,0,0.5-0.4,0c-1.3-1.4-5.1-5.5-5.6-6c-0.6-0.5-1-0.5-1.5-0.5   h-3.2L17,94.6c-0.1-0.2-0.2-0.2-0.3-0.2h-1.1c-0.2,0-0.4,0.1-0.2,0.4l2.9,3.8C18.5,99.1,19.2,98.8,19.2,99.1"
   id="path38"
   style="fill-opacity:1;fill:#be0000" />
	<path
   class="st0"
   d="M50.8,93.7c0-1,1-1.1,1-1.8c0-0.5-1.5-1.5-1.9-2.1c-0.1-0.1-0.2-0.1-0.3,0c-0.5,0.6-1.9,1.6-1.9,2.1   c0,0.7,1,0.8,1,1.8H50.8z"
   id="path40"
   style="fill-opacity:1;fill:#be0000" />
	<path
   class="st0"
   d="M67.5,106.8c0,0.6-1.2,0.8-0.3,1.6l3.5,2.9c0.8,0.7,1.8-0.4,0.8-1.4v-6l4.6-6l-2.7-2.8h-5l-0.3-0.4   c-0.1-0.2-0.2-0.2-0.3-0.2h-1.1c-0.2,0-0.4,0.1-0.2,0.4l2.6,3.6c0.5,0.8-0.5,1.6-1.2,0.9l-3.6-4.4c-0.8-1-2.3-0.4-1.8,0.4l4.7,7.1   V106.8z"
   id="path42"
   style="fill-opacity:1;fill:#be0000" />
	<path
   class="st0"
   d="M87.2,95c-0.8-0.9-2-0.5-1.4,0.6c0.6,1,2.2,3.1,2.2,3.1l2.5,0.1c0,0.9-1.4,3.1-1.4,5.4c0,1.1,2.6,5.6,5.7,5.6   c3.1,0,4.4,0.1,4.4,0.1c1.3,1,2.3,2.3,3,1.5c0.2-0.5,0-1-1-1.8l-0.2-3.9c0-0.7-0.7-1.5-1.2-1.9c-0.5-0.4-1.2-0.5-1.8-0.4   c-0.6,0-2.7,0.1-2.9,0.1c-0.3,0-0.7,0.8,0,1.4c0.7,0.6,1.2,1.6,0.2,1.6c-1,0-2.3-0.2-2.3-1.6c0-1.5,0.9-2.9,2.4-4.6   c0.7-0.6,1.3,0.3,1.2,1.2h4.1v-3c-0.8-0.8-2.6-3.4-2.6-3.4L87.2,95z"
   id="path44"
   style="fill-opacity:1;fill:#be0000" />
	<path
   class="st0"
   d="M123.6,95.5c0,0,1.1,2.1,1.8,2.9c0.6,0.8,2.1,0.6,2.8,0.6c0.7,0,1.2,0.2,1.2,1.2l0.3,5.8c0,0-1,0-1,0.7   c0,0.7,2.1,2,3.4,2.8c1.2,0.9,2.3,1.8,2.7,1.2c0.4-0.5-0.5-1.4-0.5-1.8l-0.1-5.1c0,0,1.9,2,2.7,3.1c0.8,1.1,1.7,0.8,2.1,0.2   c0,0,2-3.1,2.4-3.9c0.4-0.8,1-0.5,1,0v2.2c0,0.8,0.1,1-0.5,1c-0.5,0-0.7,0.7-0.1,1.4c0,0,3.1,2.4,3.7,2.8c0.6,0.5,1.2,0.6,1.8,0   c0.6-0.6-0.9-1.3-0.9-2.1v-8.8c0-0.6,0.2-0.7,0.9-0.7c0.7,0,0.8-0.3,0.7-0.7c0,0-0.8-1.5-1.3-2.2c-0.5-0.7-0.8-1-1.5-1   c0,0-6.4-0.2-7.4-0.2c-1,0-1.1,0.5-0.8,1.1l1.6,2.8c0,0-1.1,1.7-1.3,2.1c-0.2,0.4-0.6,0.5-0.8,0.2c0,0-1.4-1.6-2.7-3.4   c-1.3-1.8-3.1-2.8-3.9-2.8h-4.6C124.5,93.9,123,94.4,123.6,95.5"
   id="path46"
   style="fill-opacity:1;fill:#be0000" />
	<path
   class="st0"
   d="M122,38.6c0,1.6-1.2,2.3-0.8,4.2c0.3,1.9,0.5,3.8-0.3,3.8c-0.9-0.1-1.6,0.2-2.5,0.1c-1-0.1-2-0.2-3-0.2   c-1.3,0-2.6,0.2-3.9,0.2c-1.1,0-2.1,0-3.2-0.1c-2.7-0.2-5.4-1-8-1c-0.8,0-1.6,0.3-1.7-0.8c0-0.7,0.2-1.3,0.3-1.9   c0.1-0.8,0-1.7-0.1-2.5c0-1.7,0-3.4,0-5.1c0.1-2.5,0.3-5.1,0.2-7.6c0-1.2-0.2-2.3,0-3.5c0.2-1.3,0.5-2.6,0.4-3.9   c-0.2-1.8-0.4-4.4-0.2-5.7c2.5,0.6,3.4,1,5.6,1.6c2.2,0.7,2.7,0.8,4,1.3c1.3,0.5,2.6,0.7,4,1.4c1.4,0.7,3.5,1.4,4.7,1.9   c1.3,0.5,1.8,0.9,2.5,1.1c0.7,0.2,1.4,0.2,1.4,1c0.1,1.6,0.7,3.1,0.7,5.8c0,2.6,0.1,4,0.2,5.9C122.5,36.5,122,37,122,38.6    M121.8,63.1c0,5.7-0.5,11.3-0.9,17c0,0.4-0.1,0.9-0.4,1.2c-0.3,0.3-0.7,0.3-1,0.4c-6.4,0.8-12.8,0.3-19.2-0.1   c-0.6,0-1.2-0.1-1.6-0.5c-0.4-0.5-0.4-1.2-0.3-1.9c0.7-7.8-0.2-15.7-0.3-23.6c0-0.8,0.1-1.9,0.8-2.3c0.4-0.2,1-0.2,1.5-0.1   c6,0.9,12.1,1.2,18.2,0.8c0.9-0.1,1.9-0.1,2.6,0.5c0.9,0.7,0.9,2,0.8,3.1c-0.1,0.8-0.3,1.5-0.2,2.3C121.7,61,121.8,62,121.8,63.1    M92,32c-0.7,1.7-0.4,3.2-0.3,5c0,2-0.2,3.9-0.4,5.9c-0.1,0.7-0.1,1.4-0.2,2c0,0.2,0,0.4-0.1,0.5c-0.2,0.2-0.5,0.3-0.8,0.3   c-1,0.1-1.9,0-2.9-0.1c-5.9-0.4-11.8-0.4-17.7-0.1c-1.2,0.1-2.6,0.1-3.5-0.8c-0.8-0.8-0.8-2-0.8-3.1c-0.1-9-0.1-17.9-0.2-26.9   c0-0.2,0-0.4,0.1-0.6c0.1-0.2,0.3-0.3,0.6-0.4c2.6-1.2,5.3-2.2,8-2.9c1.3-0.3,2.6-0.6,3.7-1.2c0.4-0.2,0.8-0.5,1.3-0.5   c0.4-0.1,0.8,0,1.2,0.1c3.7,0.9,7.4,2,11.1,3.2c0.2,0.1,0.5,0.2,0.6,0.4c0.1,0.2,0.2,0.5,0.2,0.7c0,3.6,0.1,7.2,0.1,10.8   c0,1.5,0.1,2.3,0.1,3.2C92,28.6,92.3,31.3,92,32 M90.7,62.7c0,2.1,0.3,4.1,0.3,6.2c0,1.9,0.3,3.5,0.1,5.4c-0.2,2,0,4.5-1,6.2   c-0.1,0.2,0,0.6-0.1,0.8c-0.3,0.4-0.8,0.4-1.2,0.4c-7.2-0.2-14.4-0.3-21.6-0.5c-0.5,0-1,0-1.3-0.4c-0.2-0.3-0.3-0.7-0.3-1   c-0.4-8.4-0.7-16.8-0.9-25.2c0-0.6,0-1.4,0.5-1.8c0.3-0.2,0.7-0.3,1.1-0.3c7.6-0.5,15.3-0.4,22.9,0.4c0.7,0.1,1.6,0.2,1.9,0.9   c0.6,1.1,0,3-0.1,4.1C91,59.6,90.7,61,90.7,62.7 M58,56.8c0.1,1.4-0.4,2.9-0.4,4.4c0.1,2.1,0.1,4.3,0.1,6.4c0,4.3,0.3,8.6,0.5,12.9   c0,0.3,0,0.7-0.2,1c-0.2,0.3-0.7,0.4-1.1,0.4c-6.6,0.6-13.2,0.8-19.9,0.5c-0.4,0-0.8-0.1-1.1-0.3c-0.2-0.2-0.3-0.6-0.3-0.9   c-0.8-8.8-1-17.7-0.6-26.6c0-0.5,0.1-1,0.5-1.3c0.3-0.2,0.6-0.2,0.9-0.2c7.2-0.3,14.5-0.4,21.7-0.3C58.3,52.9,58,56.6,58,56.8    M35.1,24.2c0.1-0.6,0.7-0.6,1.2-0.8c0.5-0.2,2.8-0.9,4.3-1.4c1.5-0.5,2.7-0.7,4.2-1.4c1.5-0.7,3.8-1.2,5.8-2.1   c2-1,3.3-1.5,4.4-1.8c1.2-0.3,1.6-0.7,2.3-0.7c0,3-0.4,5.9-0.2,8.9c0.2,3.3,0,6.6,0,9.8c0,3.2,0.7,6.4,0.4,9.6   c-0.1,0.9-0.3,1-0.7,1c-2.4,0-4.8-0.1-7.2-0.2c-2.8-0.1-5.5,0-8.3-0.1c-1.4,0-2.8-0.2-4.1-0.2c-0.8,0-2.1,0.5-1.9-0.8   c0.1-0.9,0.1-1.2,0-2.6c-0.1-1.3-0.3-4.7-0.4-6.9C34.7,32.3,34.8,27.7,35.1,24.2 M155,27.9c-0.9,0-1.3-0.2-2.6-0.8   c-1.3-0.6-3.4-1.5-4.6-2.3c-1.2-0.8-2.6-0.7-3.3-1.1c-0.7-0.4-1.5-0.4-2.9-1.4c-1.3-1-2.7-1.3-3.4-1.6c-0.7-0.4-1.1-0.3-3-0.8   c-1.9-0.4-3.6-1.3-5.1-1.7c-1.5-0.4-2.9-1-3.9-1.5c-1-0.4-1.3-0.7-2.6-1c-1.3-0.3-3.8-1.3-5.5-2c-1.8-0.7-4.2-1.8-6-2.3   c-1.8-0.4-2.5-1-4.5-1.5c-2-0.5-3.5-1.3-4.3-1.8c-0.9-0.5-1.4-0.4-2-0.4c-0.6-0.1-1.2,0.2-2.2-0.5c-1-0.7-1.6-0.7-3.2-1.3   c-1.5-0.5-4.3-1.5-5.9-2c-1.5-0.5-2.2-0.8-4-1.3c-1.8-0.5-6.3-1.8-6.6-1.9c-0.3-0.1-0.9-0.4-1.6,0c-0.7,0.4-3.1,1.5-4.9,2.4   c-1.9,0.9-2.1,1.2-3.7,1.8c-1.5,0.6-2.4,0.5-3.1,0.8c-0.8,0.3-1.6,0.7-2.9,0.7c-1.2,0-1.5,0.7-2.6,1.3c-0.5,0.3-1.5,0.3-2.1,0.8   c-0.6,0.6-1.8,0.4-2.8,0.4c-1,0-1.6,0.5-2.6,0.7c-1,0.2-1.4,0.8-2.4,0.9c-1,0.2-1.4,0.8-3.3,1.3c-1.9,0.5-5.7,1.8-8,2.6   c-2.2,0.9-4.3,1.3-6.3,2.4c-1.9,1.1-2.6,0.9-3.9,1.1c-1.3,0.2-3.1,0.6-5.8,1.6c-2.7,1-6.3,2.1-8.8,2.9c-2.5,0.8-2.9,1.4-5.3,1.8   c-2.3,0.4-2,1.2-4.2,1.7c-1.7,0.2-2.9,1.3-3.9,1.8c-1,0.5-0.7,0.9-0.3,1.3c0.5,0.7,0.7,0.5,1.4,1.4C3,31.4,3.8,32,4.4,32.8   c1.7,2.1,4.4,0.3,6.4-0.7c0.9-0.5,1.7-1,2.6-1.2c0.7-0.2,1.5-0.3,2.2-0.5c2.1-0.6,3.9-2.1,6-2.5c1.1-0.2,2.3-0.4,3.5-0.8   c1.4-0.4,1.9-0.7,2.4,0.8c0.5,1.6,0.2,3.5,0.3,5.2c0.2,3.7,0.6,7.4,0.6,11.1c0,0.8-0.4,1-1.2,1.1c-1.2,0.1-2.5,0.2-3.7,0.3   c-1.4,0.1-2.8,0.2-4.2,0.2c-0.7,0-1.4,0-2,0.1c-1,0.2-3,1-3.8,1.8c-1,1.1,0.3,2.4,0.7,3.4c1,2.3,3.1,3.7,5.6,3.6   c1.7,0,3.2-0.7,4.9-0.8c1.1-0.1,2.3,0.1,3.4,0.2c0.3,0,0.7,2.6,0.7,2.8c0.1,1.2,0,2.4-0.2,3.6c-0.4,4.1-0.4,8.3,0,12.4   c0.2,1.8-0.2,3.4-0.1,5.2c0.1,1.4-0.1,3.6-0.1,4c0,0.4-1.3,0.3-2.6,0.1c-1.4-0.2-3.2-0.1-4,0.1c-0.7,0.2-1.2,0.3-2.3,0   c-1.1-0.3-1.3,0.1-3.1,0.1c-1.8,0-0.9,0.8-0.5,1.8c0.4,0.9,0.5,2.1,1.4,3.1c0.8,1,2.5,1.7,4,1.8c1.5,0.1,5.7,0,7.6-0.2   c2.1-0.2,4.3,0.3,6.4,0.3c3.1,0,6.2-0.2,9.3-0.3c2-0.1,4-0.5,6-0.3c0.9,0,1.7,0.3,2.7,0.4c1.2,0,2.4,0,3.6,0l14.8-0.1   c2.5,0,5,0,7.5-0.1c2.1,0,4.2-0.4,6.3-0.1c1.3,0.2,2.7,0.1,5.6,0.1c2.4,0,4.8-0.4,7.2-0.4c2.6,0,5.1,0.3,7.7,0.4   c2.4,0.1,4.7,0,7.1-0.1c3.2-0.1,6.4-0.2,9.6-0.1c8.1,0.2,16.1,0.1,24.2,0.1c0.7,0,1-0.1,0.9-0.7c-0.1-0.6,0-2.2,0.3-3.2   c0.3-1-0.1-1.8-0.9-2.1c-0.9-0.3-2.1-0.3-3-0.4c-1.4-0.2-2.7-0.3-4.1-0.4c-3.1-0.2-6.2,0-9.4,0.2c-2,0.1-2-3.1-2-4.2   c0.1-1.4,0.4-2.8,0.4-4.2c0-1.6-0.2-3.1-0.3-4.6c-0.2-2.1,0-4,0.1-6c0.1-2.3,0.1-4.7,0.3-7c0-0.6,2.9-0.8,3.3-0.8   c2-0.2,4.1,0.7,6.1,0.9c2.6,0.3,3.6-1.2,4.7-3.3c0.5-0.9,1.5-1.4,1.9-2.5c0.7-2-1.3-2.2-2.7-2.3c-4.4-0.5-8.7-0.7-13.1-0.7   c-0.6-2.4-0.4-5.1-0.5-7.6c-0.1-2.1-0.1-4.3-0.2-6.4c0-1.9-0.3-4,0.2-5.9c0.1-0.4,0.2-1.1,0.6-1.3c0.6-0.3,1.3,0.5,1.8,0.9   c0.9,0.6,2,0.8,3.1,1.1c5.9,1.3,10.7,4.9,16.2,7.2c0.9,0.4,1.4,0.4,1.8-0.3c1.6-2.9,3.1-4.4,3.6-5.2   C156.8,28.5,155.9,27.9,155,27.9"
   id="path48"
   style="fill-opacity:1;fill:#be0000" />
	<path
   class="st0"
   d="M115.1,104.8c0,0-0.4,0.7-0.9,0.6c-0.5-0.1-0.8,0.8-0.3,1.4c0,0,2.2,2.3,3.1,3.2c0.9,1,1.5,1.2,2,0.8   c0.5-0.4,0.4-0.7-0.3-1.5c-0.2-0.2-0.3-0.5-0.3-0.7l0-0.2c0-0.4,0.9-0.3,1.4-0.1c0.6,0.2,4.5,0,6.6,0.2c1.5,1.2,1.9,3,2.5,2.6   c0.6-0.4,1-0.9,0.4-2c-0.7-1.1-5.7-9.5-5.7-9.5c-0.3-0.4,0.8-0.4,0.3-1.4c-0.5-1-2-3-2-3l-6.2,0c-0.5,0-1-0.9-1.5-0.7   c-0.6,0.2-0.5,1-0.5,1l2.4,3.3l1.9,0.2l-2.4,5L115.1,104.8z M123.4,104.6h-1.9c-0.3,0-0.6-0.2-0.4-0.7c0.2-0.5,0.8-1.7,0.8-1.7   c0.2-0.5,0.6-0.5,0.9,0c0.3,0.5,1.1,1.7,1.1,1.7C124.1,104.3,123.9,104.6,123.4,104.6"
   id="path50"
   style="fill-opacity:1;fill:#be0000" />
	<path
   class="st0"
   d="M76.5,104.8c0,0-0.4,0.7-0.9,0.6c-0.5-0.1-0.8,0.8-0.3,1.4c0,0,2.2,2.3,3.1,3.2c0.9,1,1.5,1.2,2,0.8   c0.5-0.4,0.4-0.7-0.3-1.5c-0.2-0.2-0.3-0.5-0.3-0.7l0-0.2c0-0.4,0.9-0.3,1.4-0.1c0.6,0.2,4.5,0,6.6,0.2c1.5,1.2,1.9,3,2.5,2.6   c0.6-0.4,1-0.9,0.4-2c-0.7-1.1-5.7-9.5-5.7-9.5c-0.3-0.4,0.8-0.4,0.3-1.4c-0.5-1-2-3-2-3l-6.2,0c-0.5,0-1-0.9-1.5-0.7   c-0.6,0.2-0.5,1-0.5,1l2.4,3.3l1.9,0.2l-2.4,5L76.5,104.8z M84.8,104.6h-1.9c-0.3,0-0.6-0.2-0.4-0.7c0.2-0.5,0.8-1.7,0.8-1.7   c0.2-0.5,0.6-0.5,0.9,0c0.3,0.5,1.1,1.7,1.1,1.7C85.5,104.3,85.2,104.6,84.8,104.6"
   id="path52"
   style="fill-opacity:1;fill:#be0000" />
	<path
   class="st0"
   d="M80.4,28.1c0,0,0.1-0.1,0.1-0.1c0-0.3,0-0.5,0-0.5c0-0.1,0-0.1-0.1-0.1c0,0-0.1,0-0.1,0.1c0,0,0,0.2,0,0.5   C80.3,28,80.3,28.1,80.4,28.1L80.4,28.1z"
   id="path54"
   style="fill-opacity:1;fill:#be0000" />
	<path
   class="st0"
   d="M80.5,28.7c0,0,0-0.1,0-0.1c0,0-0.1,0-0.1,0c0,0-0.1,0.2,0,0.5c0,0,0,0.1,0.1,0.1h0c0,0,0.1-0.1,0.1-0.1   C80.5,28.8,80.5,28.7,80.5,28.7"
   id="path56"
   style="fill-opacity:1;fill:#be0000" />
	<path
   class="st0"
   d="M83.3,19.4C83.3,19.4,83.3,19.4,83.3,19.4c-0.1-0.1-0.3-0.1-0.4-0.1c0,0,0,0,0,0c-0.1,0-0.1,0-0.1,0.1   c0,0,0,0.1,0.1,0.1C83,19.5,83.2,19.5,83.3,19.4C83.3,19.5,83.3,19.5,83.3,19.4"
   id="path58"
   style="fill-opacity:1;fill:#be0000" />
	<path
   class="st0"
   d="M81.3,25.1c-0.2-0.2-0.3-0.5-0.5-0.7l0,0v0c0,0,0,0,0,0c0,0,0,0,0,0c0,0,0,0,0,0c0,0-0.1,0-0.1,0   c-0.1,0-0.2,0.1-0.2,0.2c0,0.3,0.1,0.6,0.1,0.9c0.1,0.3,0.1,0.6,0.2,0.9c0.2,0.6,0.4,1.2,0.8,1.7c0,0,0.1,0.1,0.1,0   c0,0,0.1-0.1,0-0.1c-0.3-0.5-0.5-1.1-0.6-1.7c-0.1-0.3-0.1-0.6-0.2-0.9c0-0.1,0-0.2,0-0.3c0.1,0.1,0.1,0.2,0.2,0.2   c0.2,0.2,0.4,0.5,0.6,0.7c0.4,0.5,0.8,0.9,1.3,1.3c0,0,0.1,0,0.1,0c0,0,0-0.1,0-0.1c-0.4-0.4-0.8-0.9-1.2-1.3   C81.7,25.6,81.5,25.3,81.3,25.1"
   id="path60"
   style="fill-opacity:1;fill:#be0000;stroke-width:0.2;stroke-dasharray:none;stroke:#be0000;stroke-opacity:1" />
	<path
   class="st0"
   d="M89.8,27L89.8,27c0,0.1,0,0.1-0.1,0.2c-0.1,0.1-0.2,0.3-0.3,0.4c-0.2,0.3-0.5,0.6-0.7,0.9   c-0.4,0.6-0.7,1.3-0.9,2c-0.2,0.7-0.2,1.4-0.2,2.2v0c0,0.2,0,0.3-0.1,0.4c-0.1,0.1-0.2,0.2-0.3,0.2c-0.1,0-0.2-0.1-0.3-0.2   c-0.1-0.2-0.2-0.3-0.2-0.5c-0.1-0.3-0.2-0.7-0.2-1c0-0.3,0.1-0.7,0.2-1.1c0.2-0.7,0.3-1.5,0.6-2.1c0.1-0.3,0.2-0.7,0.4-1   c0.2-0.3,0.4-0.6,0.6-0.8c0.3-0.2,0.6-0.2,0.9-0.2c0.1,0,0.3,0.1,0.4,0.2c0.1,0.1,0.2,0.2,0.3,0.3C89.8,26.9,89.8,26.9,89.8,27   C89.8,26.9,89.8,26.9,89.8,27L89.8,27z M86.3,30.4c-0.1,0.4-0.2,0.7-0.2,1.1c-0.1,0-0.2,0-0.3,0c-0.2,0-0.3,0-0.5,0.1   c-0.3,0-0.6,0.1-1,0.1c-0.6,0.1-1.3,0.1-1.9,0.1c-0.6,0-1.1-0.1-1.7-0.2c-0.1-0.3-0.1-0.6-0.2-1c0-0.2,0-0.3,0-0.5   c0-0.2,0-0.4,0-0.5v0c0,0,0-0.1-0.1-0.1c-0.1,0-0.1,0-0.1,0.1c0,0.2,0,0.4,0,0.5c0,0.2,0,0.4,0,0.5c0,0.3,0.1,0.6,0.1,0.9   c-0.4-0.1-0.8-0.2-1.2-0.3c0-0.2-0.1-0.4-0.1-0.6c-0.1-0.8-0.1-1.6-0.2-2.3c-0.1-0.8-0.1-1.6-0.2-2.4c-0.1-0.8-0.2-1.6-0.3-2.3   c0-0.1,0-0.1,0-0.2l0.9,0c0.3,0,0.7,0,1.1,0c0.2,0,0.4,0,0.6-0.1c0,0-0.1,0.1-0.1,0.1c-0.1,0.1-0.3,0.2-0.5,0.3c0,0-0.1,0.1,0,0.1   c0,0,0.1,0.1,0.1,0.1c0.2-0.1,0.4-0.2,0.5-0.3c0.1-0.1,0.2-0.1,0.2-0.2c0,0,0.1-0.1,0.1-0.2c0,0,0.1,0,0.1,0c0.2,0,0.4-0.1,0.5-0.1   c0,0-0.1,0.1-0.1,0.1c-0.1,0.2-0.3,0.4-0.5,0.6c0,0,0,0.1,0,0.1c0,0,0.1,0.1,0.1,0h0c0.2-0.2,0.4-0.4,0.6-0.6   c0.1-0.1,0.1-0.2,0.2-0.3c0.1-0.1,0.1-0.1,0.2-0.2c0.2-0.1,0.3-0.2,0.4-0.5c0-0.1,0-0.2,0-0.3c0-0.1,0-0.2-0.1-0.3   c-0.1-0.3-0.3-0.6-0.4-1c-0.1-0.4-0.2-0.7-0.3-1.1c0,0,0,0,0,0c0,0,0.1-0.1,0.2-0.1c0.1-0.1,0.2-0.1,0.4-0.1h0c0,0,0.1,0,0.1-0.1   c0,0,0-0.1-0.1-0.1c-0.1,0-0.3,0-0.4,0.1c0,0-0.1,0-0.1,0.1c0-0.2,0-0.4,0-0.6c0.1-0.7,0.3-1.3,0.7-1.9c0.1-0.1,0.2-0.3,0.3-0.3   c0.1-0.1,0.3-0.2,0.4-0.2c0,0,0,0,0,0l0,0h0c0,0,0,0,0,0c0,0,0.1,0.1,0.1,0.2c0,0.1,0,0.3,0,0.5c0,0.3,0,0.7,0,1.1   c0,0.2,0,0.4,0.1,0.6c0.1,0.2,0.1,0.3,0.2,0.5c0,0,0,0.1,0,0.1c0,0-0.1,0-0.1,0.1c-0.1,0.1-0.2,0.1-0.3,0.2   c-0.2,0.2-0.3,0.4-0.4,0.6c0,0,0,0.1,0,0.1c0,0,0.1,0,0.1,0c0.1-0.2,0.2-0.3,0.4-0.4c0.1-0.1,0.2-0.1,0.2-0.1c0,0,0.1,0,0.1,0   c0,0,0,0,0,0c0.1,0.2,0.2,0.3,0.2,0.5c0.2,0.3,0.3,0.6,0.5,0.9c0.4,0.6,0.7,1.2,1.1,1.8c0.2,0.3,0.4,0.6,0.5,0.9   c0.1,0.3,0.2,0.6,0.4,1c0.1,0.3,0.3,0.7,0.5,1c0.2,0.2,0.3,0.4,0.6,0.5c-0.3,0.2-0.5,0.5-0.6,0.9c-0.2,0.4-0.3,0.7-0.4,1.1   c-0.1,0.4-0.2,0.7-0.3,1.1L86.3,30.4z M79.4,33.1c0.1,0.2,0.2,0.4,0.4,0.5c0.1,0.1,0.2,0.2,0.3,0.2c0.1,0,0.1,0,0.2,0l0,0   c0,0,0,0,0,0c0,0,0.1,0,0.1,0c0.2,0,0.4-0.1,0.6-0.2l0.6-0.2c0.5-0.2,1-0.3,1.5-0.4c0,0,0,0.1,0.1,0.1c0,0.1,0.1,0.2,0.1,0.2v0   c0,0,0,0.1,0.1,0.1c0.1,0,0.1,0,0.1-0.1c0-0.1,0-0.2-0.1-0.3c0,0,0,0,0-0.1c0.2,0,0.3,0,0.5-0.1c0.8-0.1,1.5,0,2.2,0.4   c0.2,0.1,0.3,0.2,0.4,0.3c0,0,0,0.1,0.1,0.1c-0.1,0-0.1,0-0.2,0c-0.2,0-0.4,0-0.6,0c-0.2,0-0.4,0.2-0.6,0.3   c-0.2,0.1-0.3,0.3-0.4,0.3l0,0h0l-0.1,0l-0.1,0l-0.1,0.1c-0.1,0-0.2,0.1-0.2,0.1c-0.2,0.1-0.3,0.1-0.5,0.1   c-0.4,0.1-0.8,0.3-1.1,0.5l-1,0.6l-2,1.2c-0.3,0.2-0.7,0.4-1,0.6c-0.3,0.2-0.7,0.4-1,0.6c-0.3,0.2-0.7,0.4-1,0.8   c-0.1,0.1-0.1,0.2-0.2,0.3c0,0-0.1,0.1-0.1,0.2l-0.1,0.1c-0.1,0.2-0.1,0.4-0.2,0.5c-0.2,0.5-0.5,1-0.7,1.6c0-0.1-0.1-0.2-0.2-0.3   c-0.1-0.2-0.2-0.3-0.4-0.5c-0.1-0.2-0.3-0.3-0.4-0.4c-0.3-0.3-0.6-0.5-1-0.7c-0.4-0.2-0.7-0.3-1.1-0.4c-0.2,0-0.4,0-0.6,0   c-0.2,0-0.4,0-0.6,0c-0.4,0-0.8,0.1-1.1,0.3c0,0,0,0,0,0c0-0.2,0-0.4,0-0.6l0-0.3l0-0.1c0,0,0-0.1,0-0.1c0-0.2,0.1-0.3,0.2-0.4   c0.1-0.1,0.3-0.3,0.3-0.5c0-0.1,0-0.2,0-0.3c0-0.1,0-0.2,0-0.3c0-0.4-0.1-0.8-0.2-1.2c-0.1-0.8-0.2-1.6-0.3-2.3   c-0.1-0.8,0.1-1.5,0.2-2.3c0.3-1.5,0.7-3.1,1-4.6c0-0.2,0.1-0.4,0.1-0.6c0-0.2,0-0.4,0-0.6c0-0.4,0.1-0.8,0.2-1.2   c0-0.2,0.1-0.4,0.2-0.5c0-0.1,0.1-0.2,0.2-0.2c0,0,0.1,0,0.1,0l0,0h0h0h0c0,0,0,0,0.1,0c0.1,0,0.3,0.2,0.3,0.3   c0.1,0.2,0.1,0.4,0.2,0.6c0,0,0,0,0,0c-0.1,1-0.2,2.1-0.3,3.2c-0.1,0.5-0.1,1.1-0.2,1.6c0,0.3-0.1,0.5-0.1,0.8s-0.1,0.5-0.3,0.7h0   c0,0,0,0.1,0,0.1c0,0,0.1,0,0.1,0c0.1-0.3,0.2-0.5,0.3-0.8c0.1-0.3,0.1-0.5,0.2-0.8c0.1-0.5,0.1-1.1,0.2-1.6   c0.1-0.6,0.2-1.3,0.2-1.9c0-0.1,0.1-0.1,0.2-0.2c0.1-0.1,0.2-0.1,0.3-0.1c0.2,0,0.4,0,0.7,0h0c0,0,0.1,0,0.1-0.1   c0-0.1,0-0.1-0.1-0.1c-0.2-0.1-0.5-0.1-0.7,0c-0.1,0-0.2,0.1-0.4,0.1c0,0,0,0,0,0c0-0.3,0.1-0.6,0.1-0.9c0,0,0,0,0,0l0,0v0   c0.1-0.8,0.3-1.7,0.5-2.4c0.1-0.2,0.1-0.4,0.2-0.6c0.1-0.2,0.2-0.4,0.3-0.4c0.1-0.1,0.2,0,0.3,0.2c0.1,0.1,0.2,0.3,0.2,0.5   c0,0,0,0,0,0.1c0,0.6,0,1.2,0,1.8c0,0.4,0,0.9,0,1.3c0,0,0,0.1,0,0.1v0.4c0,0.6,0,1.3-0.1,1.9c0,0.6-0.1,1.2-0.3,1.8v0   c0,0,0,0.1,0.1,0.1c0,0,0.1,0,0.1-0.1c0.2-0.6,0.3-1.3,0.3-1.9c0.1-0.6,0.1-1.3,0.1-1.9c0-0.1,0-0.3,0-0.4c0.1-0.1,0.2-0.1,0.3-0.2   c0.1,0,0.2-0.1,0.4-0.1c0.1,0,0.3,0,0.4,0c0.1,0,0.2,0.1,0.3,0.2l0,0c0,0,0.1,0,0.1,0c0,0,0-0.1,0-0.1c-0.1-0.1-0.3-0.2-0.4-0.2   c-0.1,0-0.3-0.1-0.5-0.1c-0.2,0-0.3,0-0.4,0.1c-0.1,0-0.1,0-0.2,0.1c0-0.4,0-0.8,0.1-1.1c0-0.6,0.1-1.3,0.1-1.9v0c0,0,0,0,0,0   c0-0.5,0-0.9,0.1-1.4c0-0.2,0.1-0.5,0.1-0.7c0-0.1,0.1-0.2,0.1-0.2c0.1-0.1,0.1-0.1,0.2-0.1c0.2,0,0.3,0.1,0.4,0.3   c0.1,0.2,0.2,0.4,0.3,0.6c0.1,0.4,0.2,0.9,0.3,1.4c0,0,0,0,0,0l0,2.2v0.6c0,0.2,0,0.4,0,0.6c0,0.4-0.1,0.7-0.1,1.1   c0,0.8,0,1.5,0,2.2l0,0.6c0,0.2,0,0.4,0,0.5c-0.1,0.3-0.2,0.7-0.3,1l0,0c0,0,0,0.1,0,0.1c0,0,0.1,0,0.1,0c0.2-0.3,0.3-0.7,0.4-1.1   c0-0.2,0-0.4,0-0.6l0-0.6c0-0.7,0-1.5,0-2.2c0-0.1,0-0.2,0-0.3c0,0,0,0,0,0c0.1-0.1,0.2-0.2,0.3-0.2c0.1,0,0.3-0.1,0.4,0   c0.3,0,0.6,0.2,0.7,0.4l0,0c0,0,0.1,0,0.1,0c0,0,0.1-0.1,0-0.1c-0.2-0.3-0.5-0.5-0.9-0.5c-0.2,0-0.3,0-0.5,0   c-0.1,0-0.2,0.1-0.2,0.1c0-0.1,0-0.3,0-0.4c0-0.2,0-0.4,0-0.6v-0.6l0-2.2c0,0,0,0,0,0v0c0-0.2,0.1-0.4,0.2-0.5   c0.1-0.1,0.2-0.2,0.4-0.2c0.1,0,0.3,0.1,0.4,0.2c0.1,0.1,0.2,0.3,0.3,0.5c0.1,0.2,0.1,0.4,0.1,0.5c0,0.2,0,0.4,0.1,0.6   c0,0.4,0.1,0.8,0.2,1.2c0.1,0.8,0.2,1.6,0.3,2.3c0.1,0.8,0.1,1.6,0.2,2.3c0,0.8,0.1,1.6,0.2,2.4c0,0.4,0.1,0.8,0.2,1.2   C79.1,32.3,79.2,32.7,79.4,33.1 M86.7,34.1C86.7,34.1,86.7,34.1,86.7,34.1c-0.1,0-0.1,0-0.2,0l-0.6,0c-0.2,0-0.4,0-0.6,0.1   c0.1-0.1,0.3-0.2,0.5-0.2C86,34,86.4,34,86.7,34.1 M75,43.1c-0.1,0.1-0.2,0.2-0.3,0.1c-0.1,0-0.2-0.1-0.3-0.2   c-0.1-0.1-0.2-0.3-0.4-0.4c-0.2-0.3-0.5-0.6-0.8-0.8c-0.3-0.3-0.7-0.5-1.1-0.6C71.7,41,71.3,41,70.9,41c-0.8,0-1.6,0.3-2.1,1l0,0   c0,0-0.1,0.1-0.1,0.1c0,0-0.1,0-0.1-0.1c-0.1-0.1-0.1-0.3,0-0.4c0-0.1,0.1-0.1,0.1-0.2c0.1-0.1,0.1-0.2,0.2-0.2   c0.1-0.1,0.2-0.3,0.3-0.4c0.1-0.1,0.3-0.3,0.4-0.4v0c0,0,0,0,0,0c0.1-0.1,0.3-0.2,0.4-0.2c0.3-0.1,0.7-0.2,1-0.3c0.4,0,0.7,0,1.1,0   c0.3,0.1,0.7,0.2,1,0.4c0.6,0.3,1.1,0.9,1.5,1.5c0.2,0.3,0.3,0.6,0.3,0.9C75.1,42.9,75,43,75,43.1 M70.7,27.7   c-0.2-0.1-0.3-0.2-0.4-0.3c-0.1-0.1,0-0.2,0.2-0.3c0.1-0.1,0.3-0.1,0.5-0.2C71,27.2,70.9,27.4,70.7,27.7   C70.8,27.7,70.8,27.7,70.7,27.7 M69.8,26.4c-0.2,0-0.4-0.1-0.5-0.2c-0.1,0-0.1-0.1-0.2-0.1c0,0,0,0,0-0.1v0v0v0   c0-0.1,0.1-0.3,0.2-0.4c0.1-0.1,0.3-0.2,0.5-0.2c0.4-0.1,0.8-0.2,1.2-0.2h0c0,0,0,0,0,0l0.2,0c0,0,0,0.1,0,0.1c0,0.2,0,0.4,0,0.6   c0,0.2-0.1,0.4-0.1,0.6c0,0,0,0.1,0,0.1c0,0,0,0-0.1,0c0,0,0,0-0.1,0C70.6,26.5,70.2,26.5,69.8,26.4 M69.9,24.6   C69.9,24.5,69.9,24.5,69.9,24.6c0-0.1,0-0.1,0-0.1v0l0,0c0-0.1,0.1-0.3,0.2-0.4c0.2-0.2,0.6-0.3,0.9-0.4c0.2,0,0.3,0,0.5,0h0.1   c0,0,0-0.1,0-0.1c-0.1,0.2-0.2,0.4-0.2,0.6c-0.1,0.3-0.1,0.6-0.1,1c0,0,0-0.1,0-0.1l-0.2,0c0,0,0,0-0.1,0c-0.3,0-0.7-0.1-1-0.3   C70,24.6,69.9,24.6,69.9,24.6 M72.8,23.6c0,0,0,0.1,0,0.1C72.7,23.7,72.7,23.7,72.8,23.6C72.7,23.6,72.7,23.6,72.8,23.6 M90.2,26.9   c0-0.1,0-0.1,0-0.2c-0.2-0.4-0.6-0.7-1-0.8c-0.3-0.1-0.7,0-0.9,0.1c-0.2-0.1-0.5-0.3-0.6-0.5c-0.2-0.2-0.3-0.6-0.4-0.9   c-0.1-0.3-0.2-0.7-0.4-1c-0.2-0.3-0.3-0.6-0.5-0.9c-0.4-0.6-0.7-1.2-1.1-1.8c-0.2-0.3-0.3-0.6-0.5-0.9c-0.1-0.2-0.2-0.3-0.2-0.5   c0,0,0-0.1,0-0.1c0,0,0,0,0-0.1c0,0,0-0.1-0.1-0.1c0-0.1,0-0.2-0.1-0.2c-0.1-0.2-0.1-0.3-0.2-0.5C84,18.4,84,18.3,84,18.1   c0-0.3,0-0.7,0-1c0-0.2,0-0.4,0-0.6c0-0.1-0.1-0.2-0.2-0.3c0-0.1-0.1-0.1-0.2-0.1l0,0c0,0,0,0,0,0h0l0,0c0,0-0.1,0-0.1,0   c-0.2,0-0.4,0.2-0.6,0.3c-0.1,0.1-0.3,0.3-0.4,0.4c-0.4,0.6-0.7,1.3-0.7,2c-0.1,0.7,0.1,1.5,0.3,2.1c0.1,0.3,0.3,0.7,0.4,1   c0.1,0.1,0.1,0.3,0.1,0.4c0,0.1-0.1,0.2-0.3,0.3c-0.3,0.2-0.6,0.3-0.9,0.3c-0.3,0.1-0.7,0.1-1,0.1c-0.7,0.1-1.3,0.1-2,0.1   c0,0.1,0,0.1,0,0.2c0-0.3-0.1-0.5-0.1-0.8c0-0.2,0-0.4-0.1-0.6c0-0.2-0.1-0.4-0.2-0.6c-0.1-0.2-0.2-0.4-0.3-0.6   c-0.1-0.2-0.3-0.3-0.6-0.3c-0.1,0-0.2,0-0.4,0.1c-0.1,0-0.2,0.1-0.2,0.2c0-0.3-0.1-0.5-0.2-0.8c-0.1-0.2-0.2-0.5-0.3-0.7   C76,19.1,76,19,75.8,18.9c-0.1-0.1-0.3-0.2-0.4-0.2c-0.1,0-0.2,0-0.3,0c-0.1,0-0.2,0.1-0.2,0.1c-0.1,0.1-0.2,0.2-0.2,0.4   c-0.1,0.3-0.1,0.5-0.2,0.7c0,0.2,0,0.5,0,0.7c-0.1-0.1-0.1-0.1-0.2-0.2c-0.1,0-0.1,0-0.2,0c-0.1,0-0.2,0-0.2,0.1   c-0.1,0.1-0.2,0.2-0.3,0.3c-0.1,0.1-0.1,0.2-0.2,0.3c-0.1,0.2-0.2,0.4-0.2,0.6c-0.2,0.5-0.3,1.1-0.4,1.6c-0.1,0-0.2,0-0.3,0   c-0.1-0.1-0.2-0.1-0.3-0.1c0,0-0.1,0-0.1,0h0h0h0l0,0c-0.1,0-0.1,0-0.2,0.1c0,0,0,0.1-0.1,0.1c-0.6,0-1.3,0-1.9,0.5   c-0.1,0.1-0.3,0.3-0.3,0.5v0v0c0,0,0,0.1,0,0.1c0,0.1,0.1,0.1,0.1,0.2c0.1,0.1,0.2,0.1,0.2,0.2c0,0,0.1,0,0.1,0.1   c-0.1,0-0.2,0-0.3,0.1c-0.2,0.1-0.4,0.1-0.6,0.3c-0.2,0.1-0.4,0.4-0.4,0.6l0,0.1v0c0,0,0,0.1,0,0.1c0,0.1,0,0.1,0.1,0.2   c0.1,0.1,0.2,0.2,0.3,0.3c0.2,0.1,0.4,0.2,0.6,0.2c0.2,0,0.3,0,0.5,0.1c-0.1,0-0.1,0.1-0.2,0.2c0,0.1,0,0.1-0.1,0.2   c0,0.1,0,0.2,0,0.2c0.1,0.1,0.1,0.2,0.2,0.3c0.1,0.1,0.2,0.1,0.3,0.2c0.1,0,0.1,0.1,0.2,0.1c0,0,0-0.1,0-0.1   c-0.2,1.1-0.5,2.1-0.7,3.2c-0.1,0.4-0.1,0.8-0.2,1.2c0,0.2,0,0.4,0,0.6c0,0.2,0,0.4,0,0.6c0,0.8,0.1,1.6,0.3,2.4   c0.1,0.4,0.1,0.8,0.2,1.2c0,0.2,0,0.4,0,0.5c0,0.2-0.2,0.3-0.3,0.4c-0.1,0.1-0.1,0.2-0.2,0.3c-0.1,0.1-0.1,0.2-0.1,0.3   c0,0.1,0,0.1,0,0.2v0.2l0,0.3c0,0.2,0,0.4,0,0.6c0,0.1-0.1,0.3-0.1,0.4c-0.2,0.1-0.4,0.3-0.5,0.5c-0.1,0.1-0.3,0.3-0.4,0.5   c-0.1,0.1-0.1,0.2-0.2,0.2c0,0.1-0.1,0.2-0.1,0.3c-0.1,0.2-0.1,0.5,0,0.7c0.1,0.1,0.2,0.2,0.4,0.2c0.2,0,0.3-0.1,0.4-0.2l0,0l0,0   c0.1-0.1,0.2-0.3,0.3-0.4c0.1-0.1,0.3-0.2,0.4-0.3c0.3-0.1,0.7-0.2,1-0.2c0.4,0,0.7,0,1,0.1c0.3,0.1,0.6,0.3,0.9,0.5   c0.3,0.2,0.5,0.5,0.8,0.8c0.1,0.1,0.2,0.3,0.4,0.4c0.1,0.1,0.1,0.2,0.2,0.2c0.1,0.1,0.2,0.1,0.3,0.2c0.3,0.1,0.6-0.1,0.7-0.3   c0.1-0.2,0.2-0.4,0.2-0.7c0-0.1,0-0.2,0-0.3c0.2-0.7,0.5-1.3,0.8-2c0.1-0.2,0.2-0.4,0.2-0.6l0-0.1c0,0,0-0.1,0.1-0.1   c0-0.1,0.1-0.2,0.1-0.2c0.2-0.3,0.5-0.5,0.8-0.7c0.3-0.2,0.7-0.4,1-0.6c0.3-0.2,0.7-0.4,1-0.6l2-1.2l1-0.6c0.3-0.2,0.7-0.4,1-0.4   c0.2,0,0.4-0.1,0.6-0.2c0.1,0,0.2-0.1,0.3-0.1l0.1-0.1l0.1,0l0.1,0c0.3-0.1,0.7-0.2,1.1-0.2l0.6,0c0.1,0,0.2,0,0.3-0.1   c0,0,0.1,0,0.1-0.1c0,0,0.1-0.1,0.1-0.2v0v0c0,0,0,0,0,0c0,0,0,0,0-0.1c0,0,0-0.1,0-0.1c-0.1-0.2-0.2-0.4-0.4-0.5   c-0.1-0.2-0.3-0.3-0.5-0.4c-0.7-0.5-1.6-0.6-2.4-0.5c-0.8,0.1-1.6,0.3-2.3,0.6l-0.6,0.2c-0.2,0.1-0.4,0.1-0.5,0.1   c-0.3,0.1-0.5-0.3-0.7-0.6c-0.2-0.3-0.3-0.7-0.4-1.1c0-0.1,0-0.3-0.1-0.4c0,0,0,0.1,0,0.1c0.4,0.1,0.8,0.2,1.2,0.3c0,0,0,0,0.1,0   c0,0,0,0,0,0c0.3,0.1,0.6,0.1,0.9,0.2c0.3,0,0.7,0.1,1,0.1c0.7,0,1.3,0,2-0.1c0.3,0,0.6-0.1,1-0.1c0.2,0,0.3,0,0.5-0.1   c0.1,0,0.2,0,0.3,0c0,0.3,0.1,0.6,0.2,0.8c0.1,0.2,0.2,0.4,0.3,0.5c0.1,0.2,0.3,0.4,0.6,0.4c0.1,0,0.3,0,0.4-0.1   c0.1-0.1,0.2-0.2,0.3-0.3c0.1-0.2,0.2-0.4,0.2-0.6v0c0-0.7,0.1-1.4,0.3-2.1c0.2-0.7,0.5-1.3,0.9-1.9c0.2-0.3,0.4-0.5,0.7-0.8   c0.1-0.1,0.2-0.3,0.3-0.5c0.1-0.1,0.1-0.2,0.1-0.3l0,0v0C90.2,26.9,90.2,26.9,90.2,26.9"
   id="path62"
   style="fill-opacity:1;fill:#be0000;stroke-width:0.3;stroke-dasharray:none;stroke:#be0000;stroke-opacity:1" />
	<path
   class="st0"
   d="M83.3,34.1C83.4,34.1,83.4,34.1,83.3,34.1c0.1-0.2,0.1-0.3,0.1-0.4v0c0-0.1-0.1-0.1-0.1-0.1   c0,0-0.1,0.1-0.1,0.1C83.3,33.8,83.3,33.9,83.3,34.1C83.3,34,83.3,34.1,83.3,34.1"
   id="path64"
   style="fill-opacity:1;fill:#be0000" />
	<path
   class="st0"
   d="M74,29.5c0,0-0.1,0.3-0.2,0.6c0,0.1,0,0.1,0.1,0.1h0c0,0,0.1,0,0.1-0.1c0.1-0.3,0.1-0.6,0.1-0.6   c0,0,0-0.1-0.1-0.1C74.1,29.4,74,29.4,74,29.5"
   id="path66"
   style="fill-opacity:1;fill:#be0000" />
</g>
</svg>
