<?xml version="1.0" encoding="UTF-8" standalone="no"?>
<!-- Uploaded to: SVG Repo, www.svgrepo.com, Generator: SVG Repo Mixer Tools -->

<svg
   fill="#000000"
   width="560.20001"
   height="560.17493"
   viewBox="0 0 22.408 22.406998"
   version="1.1"
   id="svg6"
   sodipodi:docname="phone-white2.svg"
   inkscape:export-filename="phone-white2.svg"
   inkscape:export-xdpi="96"
   inkscape:export-ydpi="96"
   inkscape:version="1.2.2 (b0a84865, 2022-12-01)"
   xmlns:inkscape="http://www.inkscape.org/namespaces/inkscape"
   xmlns:sodipodi="http://sodipodi.sourceforge.net/DTD/sodipodi-0.dtd"
   xmlns="http://www.w3.org/2000/svg"
   xmlns:svg="http://www.w3.org/2000/svg">
  <sodipodi:namedview
     id="namedview914"
     pagecolor="#ffffff"
     bordercolor="#000000"
     borderopacity="0.25"
     inkscape:showpageshadow="2"
     inkscape:pageopacity="0.0"
     inkscape:pagecheckerboard="0"
     inkscape:deskcolor="#d1d1d1"
     showgrid="false"
     inkscape:zoom="0.42129697"
     inkscape:cx="280.08746"
     inkscape:cy="280.08746"
     inkscape:window-width="1309"
     inkscape:window-height="456"
     inkscape:window-x="31"
     inkscape:window-y="189"
     inkscape:window-maximized="0"
     inkscape:current-layer="svg6" />
  <defs
     id="defs10" />
  <title
     id="title2">phone</title>
  <path
     d="M 9.9999523e-4,5.594 C 9.9999523e-4,6.532 0.345,7.563 0.78199999,8.657 1.219,9.7509999 1.782,10.782 2.22,11.563 c 1.188,2.063 2.719,4.094 4.469,5.781 1.75,1.687 3.813,3.094 6.125,3.938 1.344,0.531 2.688,1.125 4.188,1.125 0.75,0 1.813,-0.281 2.781,-0.688 0.938,-0.406 1.781,-1.031 2.094,-1.781 0.125,-0.281 0.281,-0.656 0.375,-1.094 0.094,-0.406 0.156,-0.813 0.156,-1.094 0,-0.156 0,-0.313 -0.031,-0.344 -0.094,-0.188 -0.313,-0.344 -0.563,-0.5 -0.563,-0.281 -0.656,-0.375 -1.5,-0.875 -0.875,-0.5 -1.781,-1.063 -2.563,-1.469 -0.375,-0.219 -0.625,-0.313 -0.719,-0.313 -0.5,0 -1.125,0.688 -1.656,1.438 -0.563,0.75 -1.188,1.438 -1.625,1.438 -0.219,0 -0.438,-0.094 -0.688,-0.25 -0.25,-0.156 -0.5,-0.281 -0.656,-0.375 C 9.657,14.937 7.813,13.094 6.251,10.375 6.063,10.062 5.626,9.406 5.626,9.062 5.626,8.656 6.189,8.187 6.751,7.687 7.282,7.218 7.845,6.656 7.845,5.968 7.845,5.874 7.782,5.593 7.657,5.187 7.376,4.374 7.001,3.437 6.688,2.531 6.532,2.093 6.407,1.781 6.375,1.625 6.312,1.531 6.281,1.406 6.25,1.25 6.219,1.094 6.156,0.96899996 6.125,0.84399996 6.031,0.56299996 5.875,0.344 5.719,0.219 5.563,0.156 5.188,0.063 4.813,0.031 4.438,0.031 4,0 3.813,0 3.719,0 3.594,0 3.469,0.031 H 3.063 C 2.063,0.469 1.344,1.344 0.81299999,2.375 0.313,3.406 0,4.563 0,5.594 Z"
     id="path4"
     style="fill:#f2f2f2;fill-opacity:1;stroke:none;stroke-opacity:1" />
</svg>
