<?xml version="1.0" encoding="UTF-8" standalone="no"?>
<!-- Uploaded to: SVG Repo, www.svgrepo.com, Generator: SVG Repo Mixer Tools -->

<svg
   width="640"
   height="514.12793"
   viewBox="0 0 16 12.853198"
   version="1.1"
   id="svg1514"
   sodipodi:docname="youtube-grey.svg"
   xmlns:inkscape="http://www.inkscape.org/namespaces/inkscape"
   xmlns:sodipodi="http://sodipodi.sourceforge.net/DTD/sodipodi-0.dtd"
   xmlns="http://www.w3.org/2000/svg"
   xmlns:svg="http://www.w3.org/2000/svg">
  <sodipodi:namedview
     id="namedview7"
     pagecolor="#ffffff"
     bordercolor="#000000"
     borderopacity="0.25"
     inkscape:showpageshadow="2"
     inkscape:pageopacity="0.0"
     inkscape:pagecheckerboard="0"
     inkscape:deskcolor="#d1d1d1"
     showgrid="false" />
  <defs
     id="defs1518" />
  <rect
     x="-2"
     fill="none"
     width="20"
     height="20"
     id="rect1508"
     y="-3.5734012" />
  <g
     id="g1512"
     style="fill:#9b9b9b;fill-opacity:1"
     transform="translate(-2,-3.5734012)">
    <path
       d="M 17.7,5.3 C 17.5,4.6 17,4.1 16.3,3.9 14.2,3.7 12.1,3.5 10,3.6 7.9,3.6 5.8,3.7 3.7,3.9 3.1,4.1 2.5,4.7 2.3,5.3 2.1,6.9 2,8.4 2,10 c 0,1.6 0.1,3.1 0.3,4.7 0.2,0.7 0.7,1.2 1.4,1.4 2.1,0.2 4.2,0.4 6.3,0.3 2.1,0 4.2,-0.1 6.3,-0.3 0.7,-0.2 1.2,-0.7 1.4,-1.4 C 17.9,13.2 18,11.6 18,10 18,8.4 17.9,6.9 17.7,5.3 Z M 8,13 V 7 l 5.2,3 z"
       id="path1510"
       style="fill:#ffffff;fill-opacity:1" />
  </g>
</svg>
